<?xml version="1.0" encoding="UTF-8" standalone="no"?>
<!-- Created with Inkscape (http://www.inkscape.org/) -->

<svg
   width="83.800529mm"
   height="98.327599mm"
   viewBox="0 0 83.800529 98.327599"
   version="1.1"
   id="svg2691"
   inkscape:version="1.1 (c68e22c387, 2021-05-23)"
   sodipodi:docname="1-reveal.svg"
   xmlns:inkscape="http://www.inkscape.org/namespaces/inkscape"
   xmlns:sodipodi="http://sodipodi.sourceforge.net/DTD/sodipodi-0.dtd"
   xmlns="http://www.w3.org/2000/svg"
   xmlns:svg="http://www.w3.org/2000/svg">
  <sodipodi:namedview
     id="namedview2693"
     pagecolor="#ffffff"
     bordercolor="#111111"
     borderopacity="1"
     inkscape:pageshadow="0"
     inkscape:pageopacity="0"
     inkscape:pagecheckerboard="1"
     inkscape:document-units="mm"
     showgrid="false"
     inkscape:zoom="0.62003367"
     inkscape:cx="-630.61092"
     inkscape:cy="508.84333"
     inkscape:current-layer="layer1" />
  <defs
     id="defs2688" />
  <g
     inkscape:label="Layer 1"
     inkscape:groupmode="layer"
     id="layer1"
     transform="translate(-271.74198,-13.564648)">
    <g
       id="g2100"
       transform="translate(-150.26845,-210.00825)">
      <rect
         style="fill:#dbdbdb;fill-opacity:1;stroke:#000000;stroke-width:2.64583;paint-order:stroke fill markers"
         id="rect1540-9-9"
         width="66.145828"
         height="92.604172"
         x="423.33334"
         y="224.89581"
         ry="6.4713378" />
      <path
         style="fill:none;stroke:#ff0000;stroke-width:10;stroke-linecap:round;stroke-linejoin:miter;stroke-miterlimit:4;stroke-dasharray:none;stroke-opacity:1"
         d="m 429.28574,291.59862 c 4.366,1.31487 8.31085,4.01514 11.23968,7.49312 2.92816,3.47719 5.37305,7.21157 7.49311,11.23968 1.00768,1.91459 1.40988,4.71813 2.72478,6.47133 0.34684,0.46246 1.17623,-0.82296 2.04357,-2.38417 0.81408,-1.46534 1.60176,-2.94528 2.38418,-4.42776 2.85108,-5.40205 6.26778,-12.33451 9.53669,-17.37041 6.20524,-9.55942 13.65017,-18.92678 22.13877,-26.56651 2.58905,-2.33016 9.79813,-8.51491 13.96444,-8.51491"
         id="path5372-28" />
    </g>
  </g>
</svg>
