<?xml version="1.0" encoding="UTF-8" standalone="no"?>
<!-- Created with Inkscape (http://www.inkscape.org/) -->

<svg
   width="174.62498mm"
   height="128.24667mm"
   viewBox="0 0 174.62498 128.24667"
   version="1.1"
   id="svg992"
   inkscape:version="1.1 (c68e22c387, 2021-05-23)"
   sodipodi:docname="3-gift-reverse.svg"
   xmlns:inkscape="http://www.inkscape.org/namespaces/inkscape"
   xmlns:sodipodi="http://sodipodi.sourceforge.net/DTD/sodipodi-0.dtd"
   xmlns="http://www.w3.org/2000/svg"
   xmlns:svg="http://www.w3.org/2000/svg">
  <sodipodi:namedview
     id="namedview994"
     pagecolor="#ffffff"
     bordercolor="#111111"
     borderopacity="1"
     inkscape:pageshadow="0"
     inkscape:pageopacity="0"
     inkscape:pagecheckerboard="1"
     inkscape:document-units="mm"
     showgrid="false"
     inkscape:zoom="0.68061167"
     inkscape:cx="-357.76642"
     inkscape:cy="609.74564"
     inkscape:current-layer="layer1" />
  <defs
     id="defs989" />
  <g
     inkscape:label="Layer 1"
     inkscape:groupmode="layer"
     id="layer1"
     transform="translate(-199.96892,12.8092)">
    <g
       id="g963"
       transform="translate(-380.79149,-205.49323)">
      <g
         id="g7286-3-6"
         transform="translate(92.604179,13.229183)">
        <rect
           style="fill:#dbdbdb;fill-opacity:1;stroke:#000000;stroke-width:2.64583;paint-order:stroke fill markers"
           id="rect1540-9-0-17-4"
           width="66.145828"
           height="92.604172"
           x="542.39581"
           y="211.66666"
           ry="6.4713378" />
        <g
           id="g5113-5-3-6-4"
           style="stroke:#ff0000;stroke-width:10;stroke-linecap:round;stroke-miterlimit:4;stroke-dasharray:none;stroke-opacity:1"
           transform="rotate(-178.64858,366.05328,208.22921)">
          <path
             style="fill:none;stroke:#ff0000;stroke-width:10;stroke-linecap:round;stroke-linejoin:miter;stroke-miterlimit:4;stroke-dasharray:none;stroke-opacity:1"
             d="m 135.21674,144.07225 c 4.38091,-6.68835 7.16638,-14.32386 11.92087,-20.77638 0.17418,-0.23639 3.63421,-5.37287 4.76835,-4.42775 4.22194,3.51828 6.9852,8.7565 9.8773,13.28325 0.43684,0.68376 5.93398,8.26528 6.47133,9.8773"
             id="path5025-8-2-4-3" />
          <path
             style="fill:none;stroke:#ff0000;stroke-width:10;stroke-linecap:round;stroke-linejoin:miter;stroke-miterlimit:4;stroke-dasharray:none;stroke-opacity:1"
             d="m 151.56536,119.54931 c -0.30528,3.70813 1.93357,6.95359 2.38418,10.55849 0.89707,7.17653 0.68119,14.49673 0.68119,21.79816 0,3.21944 0.39806,6.69282 0,9.8773 -0.20723,1.65788 -0.62115,3.5064 -1.02179,5.10894 -0.19274,0.77098 -1.02179,1.59515 -1.02179,2.04358"
             id="path5029-2-5-18-0" />
        </g>
      </g>
      <g
         id="g2596-9-6"
         transform="translate(-119.06255,26.45835)">
        <rect
           style="fill:#dbdbdb;fill-opacity:1;stroke:#000000;stroke-width:2.64583;paint-order:stroke fill markers"
           id="rect1540-9-4-6-7"
           width="66.145828"
           height="92.604172"
           x="701.14587"
           y="171.97916"
           ry="6.4713378" />
        <g
           id="g5113-3-9-9"
           style="stroke:#ff0000;stroke-width:10;stroke-linecap:round;stroke-miterlimit:4;stroke-dasharray:none;stroke-opacity:1"
           transform="translate(589.26796,52.429855)">
          <path
             style="fill:none;stroke:#ff0000;stroke-width:10;stroke-linecap:round;stroke-linejoin:miter;stroke-miterlimit:4;stroke-dasharray:none;stroke-opacity:1"
             d="m 135.21674,144.07225 c 4.38091,-6.68835 7.16638,-14.32386 11.92087,-20.77638 0.17418,-0.23639 3.63421,-5.37287 4.76835,-4.42775 4.22194,3.51828 6.9852,8.7565 9.8773,13.28325 0.43684,0.68376 5.93398,8.26528 6.47133,9.8773"
             id="path5025-7-7-9" />
          <path
             style="fill:none;stroke:#ff0000;stroke-width:10;stroke-linecap:round;stroke-linejoin:miter;stroke-miterlimit:4;stroke-dasharray:none;stroke-opacity:1"
             d="m 151.56536,119.54931 c -0.30528,3.70813 1.93357,6.95359 2.38418,10.55849 0.89707,7.17653 0.68119,14.49673 0.68119,21.79816 0,3.21944 0.39806,6.69282 0,9.8773 -0.20723,1.65788 -0.62115,3.5064 -1.02179,5.10894 -0.19274,0.77098 -1.02179,1.59515 -1.02179,2.04358"
             id="path5029-3-3-3" />
        </g>
      </g>
      <g
         id="g2596-9-1"
         transform="translate(-13.229216,26.45835)">
        <rect
           style="fill:#dbdbdb;fill-opacity:1;stroke:#000000;stroke-width:2.64583;paint-order:stroke fill markers"
           id="rect1540-9-4-6-9"
           width="66.145828"
           height="92.604172"
           x="701.14587"
           y="171.97916"
           ry="6.4713378" />
        <g
           id="g5113-3-9-2"
           style="stroke:#ff0000;stroke-width:10;stroke-linecap:round;stroke-miterlimit:4;stroke-dasharray:none;stroke-opacity:1"
           transform="translate(589.26796,52.429855)">
          <path
             style="fill:none;stroke:#ff0000;stroke-width:10;stroke-linecap:round;stroke-linejoin:miter;stroke-miterlimit:4;stroke-dasharray:none;stroke-opacity:1"
             d="m 135.21674,144.07225 c 4.38091,-6.68835 7.16638,-14.32386 11.92087,-20.77638 0.17418,-0.23639 3.63421,-5.37287 4.76835,-4.42775 4.22194,3.51828 6.9852,8.7565 9.8773,13.28325 0.43684,0.68376 5.93398,8.26528 6.47133,9.8773"
             id="path5025-7-7-0" />
          <path
             style="fill:none;stroke:#ff0000;stroke-width:10;stroke-linecap:round;stroke-linejoin:miter;stroke-miterlimit:4;stroke-dasharray:none;stroke-opacity:1"
             d="m 151.56536,119.54931 c -0.30528,3.70813 1.93357,6.95359 2.38418,10.55849 0.89707,7.17653 0.68119,14.49673 0.68119,21.79816 0,3.21944 0.39806,6.69282 0,9.8773 -0.20723,1.65788 -0.62115,3.5064 -1.02179,5.10894 -0.19274,0.77098 -1.02179,1.59515 -1.02179,2.04358"
             id="path5029-3-3-4" />
        </g>
      </g>
    </g>
  </g>
</svg>
