<?xml version="1.0" encoding="UTF-8" standalone="no"?>
<!-- Created with Inkscape (http://www.inkscape.org/) -->

<svg
   width="227.5417mm"
   height="110.58696mm"
   viewBox="0 0 227.5417 110.58696"
   version="1.1"
   id="svg8124"
   inkscape:version="1.1 (c68e22c387, 2021-05-23)"
   sodipodi:docname="3-gift.svg"
   xmlns:inkscape="http://www.inkscape.org/namespaces/inkscape"
   xmlns:sodipodi="http://sodipodi.sourceforge.net/DTD/sodipodi-0.dtd"
   xmlns="http://www.w3.org/2000/svg"
   xmlns:svg="http://www.w3.org/2000/svg">
  <sodipodi:namedview
     id="namedview8126"
     pagecolor="#ffffff"
     bordercolor="#111111"
     borderopacity="1"
     inkscape:pageshadow="0"
     inkscape:pageopacity="0"
     inkscape:pagecheckerboard="1"
     inkscape:document-units="mm"
     showgrid="false"
     inkscape:zoom="0.77682379"
     inkscape:cx="-66.939247"
     inkscape:cy="201.46139"
     inkscape:window-width="3840"
     inkscape:window-height="1057"
     inkscape:window-x="-8"
     inkscape:window-y="2152"
     inkscape:window-maximized="1"
     inkscape:current-layer="layer1" />
  <defs
     id="defs8121" />
  <g
     inkscape:label="Layer 1"
     inkscape:groupmode="layer"
     id="layer1"
     transform="translate(-122.603,-95.25009)">
    <g
       id="g7286"
       transform="translate(-418.4699,-101.86449)">
      <rect
         style="fill:#dbdbdb;fill-opacity:1;stroke:#000000;stroke-width:2.64583;paint-order:stroke fill markers"
         id="rect1540-9-0"
         width="66.145828"
         height="92.604172"
         x="542.39581"
         y="211.66666"
         ry="6.4713378" />
      <g
         id="g5113-5-3"
         style="stroke:#ff0000;stroke-width:10;stroke-linecap:round;stroke-miterlimit:4;stroke-dasharray:none;stroke-opacity:1"
         transform="rotate(-178.64858,366.05328,208.22921)">
        <path
           style="fill:none;stroke:#ff0000;stroke-width:10;stroke-linecap:round;stroke-linejoin:miter;stroke-miterlimit:4;stroke-dasharray:none;stroke-opacity:1"
           d="m 135.21674,144.07225 c 4.38091,-6.68835 7.16638,-14.32386 11.92087,-20.77638 0.17418,-0.23639 3.63421,-5.37287 4.76835,-4.42775 4.22194,3.51828 6.9852,8.7565 9.8773,13.28325 0.43684,0.68376 5.93398,8.26528 6.47133,9.8773"
           id="path5025-8-2" />
        <path
           style="fill:none;stroke:#ff0000;stroke-width:10;stroke-linecap:round;stroke-linejoin:miter;stroke-miterlimit:4;stroke-dasharray:none;stroke-opacity:1"
           d="m 151.56536,119.54931 c -0.30528,3.70813 1.93357,6.95359 2.38418,10.55849 0.89707,7.17653 0.68119,14.49673 0.68119,21.79816 0,3.21944 0.39806,6.69282 0,9.8773 -0.20723,1.65788 -0.62115,3.5064 -1.02179,5.10894 -0.19274,0.77098 -1.02179,1.59515 -1.02179,2.04358"
           id="path5029-2-5" />
      </g>
    </g>
    <g
       id="g7334"
       transform="translate(-418.4699,-101.86449)">
      <rect
         style="fill:#dbdbdb;fill-opacity:1;stroke:#000000;stroke-width:2.64583;paint-order:stroke fill markers"
         id="rect1540-9-0-1"
         width="66.145828"
         height="92.604172"
         x="-687.91663"
         y="-293.14948"
         ry="6.4713378"
         transform="scale(-1)" />
      <g
         id="g5113-5-3-7"
         style="stroke:#ff0000;stroke-width:10;stroke-linecap:round;stroke-miterlimit:4;stroke-dasharray:none;stroke-opacity:1"
         transform="rotate(1.35142,-3130.7464,21373.725)">
        <path
           style="fill:none;stroke:#ff0000;stroke-width:10;stroke-linecap:round;stroke-linejoin:miter;stroke-miterlimit:4;stroke-dasharray:none;stroke-opacity:1"
           d="m 135.21674,144.07225 c 4.38091,-6.68835 7.16638,-14.32386 11.92087,-20.77638 0.17418,-0.23639 3.63421,-5.37287 4.76835,-4.42775 4.22194,3.51828 6.9852,8.7565 9.8773,13.28325 0.43684,0.68376 5.93398,8.26528 6.47133,9.8773"
           id="path5025-8-2-1" />
        <path
           style="fill:none;stroke:#ff0000;stroke-width:10;stroke-linecap:round;stroke-linejoin:miter;stroke-miterlimit:4;stroke-dasharray:none;stroke-opacity:1"
           d="m 151.56536,119.54931 c -0.30528,3.70813 1.93357,6.95359 2.38418,10.55849 0.89707,7.17653 0.68119,14.49673 0.68119,21.79816 0,3.21944 0.39806,6.69282 0,9.8773 -0.20723,1.65788 -0.62115,3.5064 -1.02179,5.10894 -0.19274,0.77098 -1.02179,1.59515 -1.02179,2.04358"
           id="path5029-2-5-1" />
      </g>
    </g>
    <rect
       style="fill:#dbdbdb;fill-opacity:1;stroke:#000000;stroke-width:2.64583;paint-order:stroke fill markers"
       id="rect1540-9-0-6"
       width="66.145828"
       height="92.604172"
       x="282.67596"
       y="109.80217"
       ry="6.4713378" />
    <g
       id="g5113-5-3-9"
       style="stroke:#ff0000;stroke-width:10;stroke-linecap:round;stroke-miterlimit:4;stroke-dasharray:none;stroke-opacity:1"
       transform="rotate(-178.64858,235.59266,158.82853)">
      <path
         style="fill:none;stroke:#ff0000;stroke-width:10;stroke-linecap:round;stroke-linejoin:miter;stroke-miterlimit:4;stroke-dasharray:none;stroke-opacity:1"
         d="m 135.21674,144.07225 c 4.38091,-6.68835 7.16638,-14.32386 11.92087,-20.77638 0.17418,-0.23639 3.63421,-5.37287 4.76835,-4.42775 4.22194,3.51828 6.9852,8.7565 9.8773,13.28325 0.43684,0.68376 5.93398,8.26528 6.47133,9.8773"
         id="path5025-8-2-3" />
      <path
         style="fill:none;stroke:#ff0000;stroke-width:10;stroke-linecap:round;stroke-linejoin:miter;stroke-miterlimit:4;stroke-dasharray:none;stroke-opacity:1"
         d="m 151.56536,119.54931 c -0.30528,3.70813 1.93357,6.95359 2.38418,10.55849 0.89707,7.17653 0.68119,14.49673 0.68119,21.79816 0,3.21944 0.39806,6.69282 0,9.8773 -0.20723,1.65788 -0.62115,3.5064 -1.02179,5.10894 -0.19274,0.77098 -1.02179,1.59515 -1.02179,2.04358"
         id="path5029-2-5-4" />
    </g>
  </g>
</svg>
