<?xml version="1.0" encoding="UTF-8" standalone="no"?>
<!-- Created with Inkscape (http://www.inkscape.org/) -->

<svg
   width="165.07294mm"
   height="110.99978mm"
   viewBox="0 0 165.07294 110.99978"
   version="1.1"
   id="svg1767"
   inkscape:version="1.1 (c68e22c387, 2021-05-23)"
   sodipodi:docname="3-transmit.svg"
   xmlns:inkscape="http://www.inkscape.org/namespaces/inkscape"
   xmlns:sodipodi="http://sodipodi.sourceforge.net/DTD/sodipodi-0.dtd"
   xmlns="http://www.w3.org/2000/svg"
   xmlns:svg="http://www.w3.org/2000/svg">
  <sodipodi:namedview
     id="namedview1769"
     pagecolor="#ffffff"
     bordercolor="#111111"
     borderopacity="1"
     inkscape:pageshadow="0"
     inkscape:pageopacity="0"
     inkscape:pagecheckerboard="1"
     inkscape:document-units="mm"
     showgrid="false"
     inkscape:zoom="0.77682379"
     inkscape:cx="102.98346"
     inkscape:cy="-143.53319"
     inkscape:window-width="3840"
     inkscape:window-height="1057"
     inkscape:window-x="-8"
     inkscape:window-y="2152"
     inkscape:window-maximized="1"
     inkscape:current-layer="layer1" />
  <defs
     id="defs1764" />
  <g
     inkscape:label="Layer 1"
     inkscape:groupmode="layer"
     id="layer1"
     transform="translate(-77.54381,-186.6641)">
    <rect
       style="fill:#323232;fill-opacity:1;stroke:#ffffff;stroke-width:2.64583;stroke-opacity:1;paint-order:stroke fill markers"
       id="rect1540-5-8"
       width="66.145828"
       height="92.604172"
       x="82.543823"
       y="201.21617"
       ry="6.4713378" />
    <path
       style="fill:none;stroke:#ff0000;stroke-width:10;stroke-linecap:round;stroke-linejoin:miter;stroke-miterlimit:4;stroke-dasharray:none;stroke-opacity:1"
       d="m 82.54381,267.362 c 4.366,1.31487 8.31085,4.01514 11.23968,7.49312 2.92816,3.47719 5.37305,7.21157 7.49311,11.23968 1.00768,1.91459 1.40988,4.71813 2.72478,6.47133 0.34684,0.46246 1.17623,-0.82296 2.04357,-2.38417 0.81408,-1.46534 1.60176,-2.94528 2.38418,-4.42776 2.85108,-5.40205 6.26778,-12.33451 9.53669,-17.37041 6.20524,-9.55942 13.65017,-18.92678 22.13877,-26.56651 2.58905,-2.33016 9.79813,-8.51491 13.96444,-8.51491"
       id="path5372-2-8" />
    <rect
       style="fill:#323232;fill-opacity:1;stroke:#ffffff;stroke-width:2.64583;stroke-opacity:1;paint-order:stroke fill markers"
       id="rect1540-51-5"
       width="66.145828"
       height="92.604172"
       x="161.91882"
       y="187.98701"
       ry="6.4713378" />
    <rect
       style="fill:#323232;fill-opacity:1;stroke:#ffffff;stroke-width:2.64583;stroke-opacity:1;paint-order:stroke fill markers"
       id="rect1540-2-1"
       width="66.145828"
       height="92.604172"
       x="175.14801"
       y="201.2162"
       ry="6.4713378" />
    <g
       id="g4763-7-2"
       style="stroke:#ff0000;stroke-width:10;stroke-linecap:round;stroke-miterlimit:4;stroke-dasharray:none;stroke-opacity:1"
       transform="translate(42.85637,82.15368)">
      <path
         style="fill:none;stroke:#ff0000;stroke-width:10;stroke-linecap:round;stroke-linejoin:miter;stroke-miterlimit:4;stroke-dasharray:none;stroke-opacity:1"
         d="m 132.29166,145.52083 c 0.40737,-0.48286 0.60651,-1.59052 1.2221,-1.44858 1.81513,0.4185 12.21917,6.99902 12.94266,7.49311 11.19488,7.64529 19.42928,18.46214 29.63188,27.24771 1.96181,1.68934 3.98846,3.31466 6.13073,4.76835 1.05034,0.71273 2.31753,1.04992 3.40597,1.70298 0.0974,0.0584 0.11168,0.36099 0,0.3406 -0.19323,-0.0353 -0.27778,-0.27778 -0.41667,-0.41667"
         id="path4487-2-7" />
      <path
         style="fill:none;stroke:#ff0000;stroke-width:10;stroke-linecap:round;stroke-linejoin:miter;stroke-miterlimit:4;stroke-dasharray:none;stroke-opacity:1"
         d="m 132.29166,185.20833 c 1.76976,-1.10997 3.67483,-2.02886 5.30926,-3.32989 0.97585,-0.77681 5.1886,-6.13193 5.79013,-6.81193 1.54346,-1.74477 3.14592,-3.43735 4.76835,-5.10894 6.28861,-6.47918 12.30746,-13.081 18.3922,-19.75459 4.38791,-4.81255 3.73223,-4.07283 7.83372,-8.17431 0.56766,-0.56766 2.15847,-2.36405 1.70298,-1.70298 -1.25273,1.81813 -2.73942,3.46343 -4.10914,5.19514"
         id="path4489-8-7" />
    </g>
  </g>
</svg>
