<?xml version="1.0" encoding="UTF-8" standalone="no"?>
<!-- Created with Inkscape (http://www.inkscape.org/) -->

<svg
   width="121.70828mm"
   height="139.37308mm"
   viewBox="0 0 121.70828 139.37308"
   version="1.1"
   id="svg3258"
   inkscape:version="1.1 (c68e22c387, 2021-05-23)"
   sodipodi:docname="4-gift-rev.svg"
   xmlns:inkscape="http://www.inkscape.org/namespaces/inkscape"
   xmlns:sodipodi="http://sodipodi.sourceforge.net/DTD/sodipodi-0.dtd"
   xmlns="http://www.w3.org/2000/svg"
   xmlns:svg="http://www.w3.org/2000/svg">
  <sodipodi:namedview
     id="namedview3260"
     pagecolor="#ffffff"
     bordercolor="#111111"
     borderopacity="1"
     inkscape:pageshadow="0"
     inkscape:pageopacity="0"
     inkscape:pagecheckerboard="1"
     inkscape:document-units="mm"
     showgrid="false"
     inkscape:zoom="0.62003367"
     inkscape:cx="203.21477"
     inkscape:cy="468.52294"
     inkscape:current-layer="layer1" />
  <defs
     id="defs3255" />
  <g
     inkscape:label="Layer 1"
     inkscape:groupmode="layer"
     id="layer1"
     transform="translate(-51.374302,-24.192772)">
    <g
       id="g3062"
       transform="translate(-913.03197,-146.46347)">
      <rect
         style="fill:#dbdbdb;fill-opacity:1;stroke:#000000;stroke-width:2.64583;paint-order:stroke fill markers"
         id="rect1540-9-51"
         width="66.145828"
         height="92.604172"
         x="965.72919"
         y="211.66666"
         ry="6.4713378" />
      <g
         id="g5113-5-4"
         style="stroke:#ff0000;stroke-width:10;stroke-linecap:round;stroke-miterlimit:4;stroke-dasharray:none;stroke-opacity:1"
         transform="rotate(-178.64858,572.96572,206.95296)">
        <path
           style="fill:none;stroke:#ff0000;stroke-width:10;stroke-linecap:round;stroke-linejoin:miter;stroke-miterlimit:4;stroke-dasharray:none;stroke-opacity:1"
           d="m 135.21674,144.07225 c 4.38091,-6.68835 7.16638,-14.32386 11.92087,-20.77638 0.17418,-0.23639 3.63421,-5.37287 4.76835,-4.42775 4.22194,3.51828 6.9852,8.7565 9.8773,13.28325 0.43684,0.68376 5.93398,8.26528 6.47133,9.8773"
           id="path5025-8-9" />
        <path
           style="fill:none;stroke:#ff0000;stroke-width:10;stroke-linecap:round;stroke-linejoin:miter;stroke-miterlimit:4;stroke-dasharray:none;stroke-opacity:1"
           d="m 151.56536,119.54931 c -0.30528,3.70813 1.93357,6.95359 2.38418,10.55849 0.89707,7.17653 0.68119,14.49673 0.68119,21.79816 0,3.21944 0.39806,6.69282 0,9.8773 -0.20723,1.65788 -0.62115,3.5064 -1.02179,5.10894 -0.19274,0.77098 -1.02179,1.59515 -1.02179,2.04358"
           id="path5029-2-8" />
      </g>
      <rect
         style="fill:#dbdbdb;fill-opacity:1;stroke:#000000;stroke-width:2.64583;paint-order:stroke fill markers"
         id="rect1540-9-8"
         width="66.145828"
         height="92.604172"
         x="992.1875"
         y="171.97916"
         ry="6.4713378" />
      <rect
         style="fill:#dbdbdb;fill-opacity:1;stroke:#000000;stroke-width:2.64583;paint-order:stroke fill markers"
         id="rect1540-9-91"
         width="66.145828"
         height="92.604172"
         x="1005.4166"
         y="185.20833"
         ry="6.4713378" />
      <rect
         style="fill:#dbdbdb;fill-opacity:1;stroke:#000000;stroke-width:2.64583;paint-order:stroke fill markers"
         id="rect1540-9-09"
         width="66.145828"
         height="92.604172"
         x="1018.6458"
         y="198.4375"
         ry="6.4713378" />
      <g
         id="g5113-4-6"
         style="stroke:#ff0000;stroke-width:10;stroke-linecap:round;stroke-miterlimit:4;stroke-dasharray:none;stroke-opacity:1"
         transform="translate(903.3079,82.867161)">
        <path
           style="fill:none;stroke:#ff0000;stroke-width:10;stroke-linecap:round;stroke-linejoin:miter;stroke-miterlimit:4;stroke-dasharray:none;stroke-opacity:1"
           d="m 135.21674,144.07225 c 4.38091,-6.68835 7.16638,-14.32386 11.92087,-20.77638 0.17418,-0.23639 3.63421,-5.37287 4.76835,-4.42775 4.22194,3.51828 6.9852,8.7565 9.8773,13.28325 0.43684,0.68376 5.93398,8.26528 6.47133,9.8773"
           id="path5025-88-6" />
        <path
           style="fill:none;stroke:#ff0000;stroke-width:10;stroke-linecap:round;stroke-linejoin:miter;stroke-miterlimit:4;stroke-dasharray:none;stroke-opacity:1"
           d="m 151.56536,119.54931 c -0.30528,3.70813 1.93357,6.95359 2.38418,10.55849 0.89707,7.17653 0.68119,14.49673 0.68119,21.79816 0,3.21944 0.39806,6.69282 0,9.8773 -0.20723,1.65788 -0.62115,3.5064 -1.02179,5.10894 -0.19274,0.77098 -1.02179,1.59515 -1.02179,2.04358"
           id="path5029-0-8" />
      </g>
    </g>
  </g>
</svg>
